<?xml version="1.0" encoding="UTF-8"?>
<svg id="Layer_1" xmlns="http://www.w3.org/2000/svg" version="1.1" viewBox="0 0 500 500">
  <!-- Generator: Adobe Illustrator 29.1.0, SVG Export Plug-In . SVG Version: 2.1.0 Build 142)  -->
  <defs>
    <style>
      .st0, .st1 {
        fill: none;
        stroke: #232140;
        stroke-linejoin: bevel;
        stroke-width: 6px;
      }

      .st1 {
        stroke-linecap: round;
      }

      .st2 {
        fill: #232140;
      }
    </style>
  </defs>
  <g>
    <path class="st2" d="M214.1,202.49l7.88-5.77c1-.71,1.73-1.33,2.19-1.84.45-.52.76-1.07.92-1.67.16-.6.24-1.38.24-2.35s-.26-1.58-.78-1.92c-.52-.34-1.52-.51-3.02-.51h-8.71c-1.23,0-2.16-.27-2.77-.8-.62-.53-.92-1.35-.92-2.45,0-.68.1-1.86.29-3.54.26-1.88.39-3.28.39-4.22,0-1.71-.11-3.01-.34-3.88l5.21-2.28c.19.52.29,1.2.29,2.04,0,.45-.11,1.06-.32,1.82-.21.76-.43,1.51-.66,2.26-.55,1.62-.83,2.68-.83,3.2,0,.45.15.81.44,1.07s.76.39,1.41.39h9.49c1.75,0,3.03.35,3.84,1.04.81.7,1.22,1.84,1.22,3.42,0,1.84-.28,3.76-.83,5.75-.55,1.99-1.35,3.86-2.38,5.6-1.04,1.75-2.24,3.17-3.6,4.27l-8.66,7.13v-6.74Z"/>
    <path class="st2" d="M251.61,206.2c-.1-.99-.15-1.96-.15-2.93,0-.74.04-1.59.12-2.55.08-.95.17-1.88.27-2.79.1-.94.19-1.88.27-2.81s.12-1.79.12-2.57c0-1.1-.15-1.94-.44-2.52s-.74-.99-1.34-1.21c-.6-.23-1.47-.34-2.6-.34h-6.52c-2.14,0-3.79-.16-4.96-.49-1.17-.32-2.11-.87-2.82-1.65l2.53-6.3c.84.61,1.54,1.06,2.09,1.33.55.28,1.12.45,1.7.53.58.08,1.43.12,2.53.12h8.56c1.95,0,3.3.37,4.06,1.12.76.74,1.14,2.07,1.14,3.98,0,.45-.02.94-.05,1.46-.03.52-.08,1.08-.15,1.7-.2,2.81-.29,5.19-.29,7.13s.06,3.55.19,4.83c.13,1.28.36,2.45.68,3.52l-4.48,2.76c-.23-.55-.39-1.32-.49-2.3ZM235.31,203.17c0-1.33.07-2.69.22-4.1.15-1.41.35-2.72.61-3.95l4.33-1.7c-.26,2.36-.39,4.71-.39,7.03s.1,4.04.29,5.43l-4.62,2.72c-.29-1.62-.44-3.43-.44-5.43Z"/>
    <path class="st2" d="M272.33,201.52l5.69-4.85c1.26-1.1,2.12-2.02,2.55-2.76.44-.74.66-1.68.66-2.81,0-1.07-.28-1.79-.85-2.16-.57-.37-1.63-.56-3.19-.56h-8.85c-2.14,0-3.81-.14-5.01-.41-1.2-.27-2.14-.75-2.82-1.43l2.48-6.45c.81.61,1.48,1.05,2.02,1.31s1.11.43,1.73.51c.62.08,1.54.12,2.77.12h10.26c1.39,0,2.5.14,3.31.41.81.28,1.4.75,1.78,1.41.37.66.56,1.61.56,2.84,0,1.42-.32,3.18-.95,5.26-.63,2.08-1.47,4.08-2.51,5.99-1.04,1.91-2.11,3.35-3.21,4.32l-6.42,5.92v-6.64ZM263.33,205.06c0-2,.08-3.97.24-5.89s.36-3.61.58-5.07l3.79-1.5c-.16,1.39-.29,2.85-.39,4.39-.1,1.54-.15,3.21-.15,5.02,0,1.58.14,3.57.41,5.97.28,2.39.54,4.27.8,5.63l-4.23,2.81c-.71-3.01-1.07-6.79-1.07-11.35Z"/>
    <path class="st2" d="M205.44,239.93c.05-.52-.06-.96-.32-1.33-.26-.37-.75-.77-1.46-1.19-1.49-.91-2.98-1.84-4.48-2.81l3.02-6.16c2.24,1.58,4.28,2.94,6.13,4.07.97.58,1.63,1.16,1.97,1.72.34.57.45,1.25.32,2.04-.13.79-.47,1.92-1.02,3.37l-2.92,7.37-3.65.05,1.85-5c.32-.9.51-1.62.56-2.13Z"/>
    <path class="st2" d="M227.26,254.79c-.1-.95-.15-1.93-.15-2.93,0-1.36.13-3.51.39-6.45.19-2.36.29-3.96.29-4.8,0-1.07-.12-1.85-.36-2.35s-.66-.85-1.24-1.04c-.58-.19-1.44-.29-2.58-.29h-3.11c-1.91,0-3.38-.15-4.4-.46-1.02-.31-1.87-.82-2.55-1.53l2.43-6.35c.75.58,1.39,1,1.92,1.26s1.1.44,1.7.53c.6.1,1.42.15,2.46.15h4.52c1.95,0,3.32.38,4.14,1.14.81.76,1.22,2.05,1.22,3.86,0,.55-.08,1.55-.24,3.01-.26,2.75-.39,5.11-.39,7.08,0,2.17.07,3.88.22,5.14.15,1.26.36,2.39.66,3.4l-4.43,2.86c-.23-.52-.39-1.25-.49-2.21Z"/>
    <path class="st2" d="M243.73,249.92c-.08-.65-.17-1.34-.27-2.09-.13-1.16-.24-2.19-.34-3.08-.1-.89-.16-1.96-.19-3.23-.07-.9-.15-1.57-.27-1.99-.11-.42-.31-.77-.58-1.04-.28-.27-.72-.61-1.34-.99-1.2-.71-2.51-1.52-3.94-2.42l3.06-6.26c1.33.94,2.66,1.84,3.99,2.72.68.45,1.17.85,1.46,1.19s.49.77.58,1.29c.1.52.15,1.31.15,2.38,0,3.3.17,5.96.51,7.98.34,2.02.88,3.84,1.63,5.46l-4.28,1.89c-.03-.55-.09-1.15-.17-1.79ZM248.18,249c1.75-.61,3.11-1.15,4.09-1.6.97-.45,1.82-1,2.53-1.65.42-.81.71-1.67.88-2.57.16-.91.24-1.99.24-3.25,0-.65-.07-1.1-.22-1.36-.15-.26-.53-.57-1.14-.92-1.36-.87-2.64-1.71-3.84-2.52l2.82-6.26c1.3.91,2.95,2.04,4.96,3.39.78.52,1.29.99,1.53,1.43s.37,1.06.37,1.87c0,1.39-.26,3.13-.78,5.21-.52,2.09-1.1,3.81-1.75,5.17-1.04,2.2-2.19,3.99-3.45,5.38-.55.55-1.26,1.08-2.12,1.58-.86.5-1.89,1.01-3.09,1.53l-3.75,1.6c-2.76,1.2-5.27,2.5-7.54,3.93l.29-6.94c1.85-1.07,4.04-2.02,6.57-2.86l2.63-.92.78-.24Z"/>
    <path class="st2" d="M269.34,252.34c-.33-1.97-.52-4.64-.58-8-.03-2.2-.11-3.76-.22-4.68-.11-.92-.32-1.6-.61-2.04s-.81-.88-1.56-1.33l-2.38-1.46,2.58-6.35,3.36,2.09c.62.39,1.06.74,1.34,1.07s.46.74.56,1.24c.1.5.15,1.24.15,2.21,0,1.71.1,4.83.29,9.36l.1,1.7c.1,1.68.29,2.81.58,3.37.29.57.75.85,1.36.85.81,0,2.1-.19,3.87-.56,1.77-.37,3.5-.86,5.18-1.46,1.69-.6,2.92-1.24,3.7-1.92.71-.58,1.26-1.46,1.65-2.64.39-1.18.58-2.43.58-3.76,0-.74-.11-1.33-.32-1.75-.21-.42-.66-.91-1.34-1.46l-1.9-1.5,2.97-6.45,2.97,2.42c.81.65,1.35,1.28,1.63,1.89s.41,1.29.41,2.04c0,1.88-.39,3.98-1.17,6.3s-1.78,4.54-2.99,6.62c-1.22,2.09-2.47,3.73-3.77,4.92-1.65,1.1-3.95,2.06-6.88,2.89-2.94.82-5.6,1.37-8,1.62-.71-1.52-1.23-3.27-1.56-5.24ZM278.05,242.6c.16-1.16.24-2.23.24-3.2,0-.61-.09-1.11-.27-1.48-.18-.37-.56-.82-1.14-1.33l-1.8-1.55,2.87-6.4,3.02,2.43c.78.61,1.33,1.16,1.65,1.65.32.49.49.99.49,1.5,0,1.04-.14,2.17-.41,3.42-.28,1.25-.74,2.87-1.39,4.87l-.53,1.55c-.88.71-2.01,1.5-3.41,2.38.29-1.39.52-2.67.68-3.83Z"/>
    <path class="st2" d="M207.92,303.19c-.1-.99-.15-1.96-.15-2.93,0-.74.04-1.59.12-2.55.08-.95.17-1.88.27-2.79.1-.94.19-1.88.27-2.81.08-.94.12-1.79.12-2.57,0-1.1-.15-1.94-.44-2.52s-.74-.99-1.34-1.21c-.6-.23-1.47-.34-2.6-.34h-6.52c-2.14,0-3.79-.16-4.96-.49-1.17-.32-2.11-.87-2.82-1.65l2.53-6.3c.84.61,1.54,1.06,2.09,1.33.55.28,1.12.45,1.7.53.58.08,1.43.12,2.53.12h8.56c1.95,0,3.3.37,4.06,1.12.76.74,1.14,2.07,1.14,3.98,0,.45-.02.94-.05,1.46-.03.52-.08,1.08-.15,1.7-.19,2.81-.29,5.19-.29,7.13s.06,3.55.19,4.83c.13,1.28.36,2.45.68,3.52l-4.48,2.76c-.23-.55-.39-1.32-.49-2.3ZM191.63,300.16c0-1.33.07-2.69.22-4.1.15-1.41.35-2.72.61-3.95l4.33-1.7c-.26,2.36-.39,4.71-.39,7.03s.1,4.04.29,5.43l-4.62,2.72c-.29-1.62-.44-3.43-.44-5.43Z"/>
    <path class="st2" d="M230.2,298.66c0-1.97.1-4.95.29-8.92.06-1.42.15-2.84.24-4.27h-6.66c-2.21,0-3.88-.14-5.01-.41s-2.04-.74-2.72-1.38l2.43-6.6c.84.74,1.76,1.25,2.75,1.53.99.28,2.23.41,3.72.41h13.09l-.83,6.35c-.91.1-1.58.27-2.02.51-.44.24-.74.61-.9,1.12-.16.5-.24,1.24-.24,2.21-.03,2.65.02,4.94.15,6.86.13,1.92.34,3.86.63,5.8,0,.16.03.42.1.78l-4.48,2.86c-.36-1.55-.54-3.83-.54-6.84Z"/>
    <path class="st2" d="M246.5,303.24c-.1-1.15-.15-2.19-.15-3.13,0-1.29.15-3.38.44-6.26.06-.81.14-1.58.22-2.3.08-.73.12-1.37.12-1.92,0-.97-.15-1.71-.46-2.23-.31-.52-.88-1-1.73-1.46-.26-.16-.54-.32-.83-.48s-.58-.34-.88-.53c-1.23-.71-2.14-1.31-2.72-1.79l3.11-6.21c.45.36,1.09.81,1.92,1.36.83.55,1.71,1.1,2.65,1.65,1.13.71,1.9,1.37,2.31,1.96.4.6.61,1.42.61,2.45,0,.91-.11,2.67-.34,5.29-.1,1.07-.2,2.1-.32,3.1-.11,1-.17,1.83-.17,2.47,0,1.16.07,2.46.22,3.88.15,1.42.36,2.64.66,3.64l-4.28,2.96c-.16-.49-.29-1.3-.39-2.45Z"/>
    <path class="st2" d="M259.49,304.46c-1.43.18-2.56.44-3.41.8l.88-6.4c.62-.32,1.5-.54,2.65-.66,1.15-.11,2.65-.17,4.5-.17h6.62l.1-8.92c0-.97-.12-1.71-.37-2.23-.24-.52-.66-.89-1.24-1.12s-1.41-.34-2.48-.34h-3.26c-1.82,0-3.23-.14-4.23-.41-1-.27-1.82-.69-2.43-1.24l2.38-6.64c.81.74,1.66,1.25,2.55,1.5.89.26,2.02.39,3.38.39h4.43c1.91,0,3.33.37,4.26,1.12.92.74,1.39,1.92,1.39,3.54,0,.68-.1,2.17-.29,4.46-.29,2.88-.44,5.19-.44,6.94,0,1,.19,1.73.58,2.18.39.45,1.1.84,2.14,1.16l-.68,5.77h-12.21c-1.78,0-3.39.09-4.82.27Z"/>
    <path class="st2" d="M287.2,298.42c-.08-.65-.17-1.34-.27-2.09-.13-1.16-.24-2.19-.34-3.08-.1-.89-.16-1.96-.19-3.23-.07-.9-.15-1.57-.27-1.99-.11-.42-.31-.77-.58-1.04-.28-.27-.72-.61-1.34-.99-1.2-.71-2.51-1.52-3.94-2.42l3.07-6.26c1.33.94,2.66,1.84,3.99,2.72.68.45,1.17.85,1.46,1.19s.49.77.58,1.29c.1.52.15,1.31.15,2.38,0,3.3.17,5.96.51,7.98.34,2.02.88,3.84,1.63,5.46l-4.28,1.89c-.03-.55-.09-1.15-.17-1.79ZM291.65,297.5c1.75-.61,3.11-1.15,4.09-1.6.97-.45,1.82-1,2.53-1.65.42-.81.71-1.67.88-2.57s.24-1.99.24-3.25c0-.65-.07-1.1-.22-1.36s-.53-.57-1.14-.92c-1.36-.87-2.64-1.71-3.84-2.52l2.82-6.26c1.3.91,2.95,2.04,4.96,3.39.78.52,1.29.99,1.53,1.43s.36,1.06.36,1.87c0,1.39-.26,3.13-.78,5.21-.52,2.09-1.1,3.81-1.75,5.17-1.04,2.2-2.19,3.99-3.45,5.38-.55.55-1.26,1.08-2.12,1.58-.86.5-1.89,1.01-3.09,1.53l-3.75,1.6c-2.76,1.2-5.27,2.5-7.54,3.93l.29-6.94c1.85-1.07,4.04-2.02,6.57-2.86l2.63-.92.78-.24Z"/>
  </g>
  <rect class="st0" x="155.69" y="359.77" width="182.89" height="23.39"/>
  <rect class="st1" x="133.02" y="384.08" width="228.46" height="23.39"/>
  <rect class="st0" x="119.22" y="408.39" width="255.45" height="23.39"/>
  <path class="st1" d="M376.86,383.66v-169.78c0-71.08-57.62-128.71-128.71-128.71h0c-71.28,0-129.07,57.79-129.07,129.07v169.42"/>
  <path class="st1" d="M392.61,395.77v-186.31c0-78-64.66-141.24-144.42-141.24h0c-79.99,0-144.83,63.41-144.83,141.64v185.91"/>
  <path class="st1" d="M361.75,366.31v-149.87c0-62.75-50.87-113.61-113.61-113.61h0c-62.92,0-113.94,51.01-113.94,113.94v149.55"/>
</svg>